<?xml version="1.0" standalone="no"?>
<!DOCTYPE svg PUBLIC "-//W3C//DTD SVG 20010904//EN"
 "http://www.w3.org/TR/2001/REC-SVG-20010904/DTD/svg10.dtd">
<svg version="1.0" xmlns="http://www.w3.org/2000/svg"
 width="1000.000000pt" height="1000.000000pt" viewBox="0 0 1000.000000 1000.000000"
 preserveAspectRatio="xMidYMid meet">
<metadata>
Created by potrace 1.11, written by Peter Selinger 2001-2013
</metadata>
<g transform="translate(0.000000,1000.000000) scale(0.100000,-0.100000)"
fill="#000000" stroke="none">
<path d="M0 5000 l0 -5000 5000 0 5000 0 0 5000 0 5000 -5000 0 -5000 0 0
-5000z m5617 2485 c620 -80 1127 -476 1356 -1060 79 -203 113 -414 104 -659
-11 -290 -85 -546 -228 -784 -259 -431 -679 -715 -1184 -799 -68 -11 -210 -16
-582 -20 l-491 -5 -4 -472 c-4 -447 -6 -475 -26 -551 -69 -250 -217 -432 -448
-548 -126 -63 -219 -83 -384 -81 -132 2 -220 23 -336 79 -174 84 -307 217
-390 390 -86 179 -79 -12 -79 2055 l0 1835 23 90 c73 287 258 463 547 519 44
9 96 17 115 19 19 2 452 5 962 5 779 2 946 0 1045 -13z"/>
</g>
</svg>
