<?xml version="1.0" standalone="no"?>
<!DOCTYPE svg PUBLIC "-//W3C//DTD SVG 20010904//EN"
 "http://www.w3.org/TR/2001/REC-SVG-20010904/DTD/svg10.dtd">
<svg version="1.0" xmlns="http://www.w3.org/2000/svg"
 width="880.000000pt" height="880.000000pt" viewBox="0 0 880.000000 880.000000"
 preserveAspectRatio="xMidYMid meet">
<g transform="translate(0.000000,880.000000) scale(0.100000,-0.100000)"
fill="#000000" stroke="none">
<path d="M2105 8720 c-428 -28 -768 -201 -1001 -509 -77 -102 -180 -307 -222
-441 -42 -133 -71 -281 -82 -412 -13 -150 -13 -5766 0 -5916 18 -226 76 -435
175 -637 219 -445 611 -694 1138 -724 474 -26 843 88 1117 346 248 233 412
599 449 1003 7 68 11 401 11 818 l0 702 698 0 c383 0 760 5 837 10 703 50
1364 293 1835 674 588 476 907 1165 939 2023 21 602 -61 1088 -259 1519 -350
760 -1077 1287 -2040 1478 -372 74 -246 69 -1945 71 -841 2 -1584 -1 -1650 -5z"/>
</g>
</svg>
